<svg xmlns="http://www.w3.org/2000/svg" viewBox="0 0 798.93 78.14"><defs><style>.cls-1{fill:#0095aa;}.cls-2{fill:#666;}</style></defs><g id="Layer_2" data-name="Layer 2"><g id="Layer_1-2" data-name="Layer 1"><polygon class="cls-1" points="395.98 44.49 378.43 8.49 365.82 8.49 365.82 76.07 374.98 76.07 374.98 21.67 392.69 57.66 392.78 57.84 398.74 57.84 416.74 21.66 416.74 76.07 425.9 76.07 425.9 8.49 413.67 8.49 395.98 44.49"/><path class="cls-1" d="M469.26,27.28c-3.21-2.68-8.55-4-15.88-4a28.07,28.07,0,0,0-12,2.28,15.61,15.61,0,0,0-7.23,6.59l-.15.28,7.37,4.49.16-.29a11.81,11.81,0,0,1,3.89-3.76c1.79-1.15,4.39-1.73,7.73-1.73,3.75,0,6.73.69,8.84,2.07s3.12,3.94,3.12,7.71v2.17L453,44.13c-4.95.59-8.79,1.56-11.4,2.91a14.73,14.73,0,0,0-6.08,5.59,17.08,17.08,0,0,0-2.1,8.85,16.77,16.77,0,0,0,4,11.55c2.68,3,6.53,4.54,11.44,4.54a18.08,18.08,0,0,0,9-2.27,47.92,47.92,0,0,0,7.3-5.18v5.95h9V41.26C474.11,34.68,472.48,30,469.26,27.28Zm-4.11,23.09V62.24L462,64.73a28.27,28.27,0,0,1-3.41,2.34A25.44,25.44,0,0,1,455,68.79a10.13,10.13,0,0,1-3.61.68c-2.94,0-5.16-.64-6.61-1.91s-2.16-3.36-2.16-6.28a8.2,8.2,0,0,1,3.26-7c2.19-1.62,6.06-2.68,11.49-3.16Z"/><path class="cls-1" d="M507.92,68.62A16.6,16.6,0,0,1,501.24,70c-2.73,0-4.43-.81-5.2-2.47s-1.2-4.63-1.2-8.66V32.3H507.7V24.69H494.84V10.57h-9V24.69h-7.25V32.3h7.25V60.41c0,5.86,1.16,10.22,3.44,13s6.11,4.18,11.35,4.18a32.59,32.59,0,0,0,9.67-1.52l.31-.1-2.39-7.47Z"/><path class="cls-1" d="M544.13,23.24A18.9,18.9,0,0,0,534.54,26a41,41,0,0,0-7.74,5.77V3.41h-9V76.07h9v-36a50.08,50.08,0,0,1,8.06-5.77,15.46,15.46,0,0,1,7.29-2.37,8.4,8.4,0,0,1,4.65,1A5.88,5.88,0,0,1,549,36.3c.45,1.56.68,4.78.68,9.56V76.07h9V41.89c0-6.68-1.18-11.51-3.51-14.35S549.11,23.24,544.13,23.24Z"/><polygon class="cls-1" points="618.55 61.84 606.01 8.74 605.95 8.49 595.33 8.49 582.92 61.45 570.76 8.74 570.7 8.49 561.13 8.49 577.04 75.82 577.1 76.07 588.11 76.07 600.52 23.58 612.82 75.81 612.88 76.07 624.08 76.07 640.39 8.49 630.97 8.49 618.55 61.84"/><path class="cls-1" d="M725.62,23.92a14.8,14.8,0,0,0-8.72,2.79,56,56,0,0,0-6.81,5.74V24.69h-9V76.07h9V40.82A32.91,32.91,0,0,1,718,34.66,15.74,15.74,0,0,1,725,33a9.8,9.8,0,0,1,3.74.56l.36.15,1.93-8.6-.21-.12A11,11,0,0,0,725.62,23.92Z"/><rect class="cls-1" x="738.74" y="3.41" width="8.97" height="72.65"/><path class="cls-1" d="M789.91,3.41V28.47a21.26,21.26,0,0,0-13.8-5.23,17.92,17.92,0,0,0-15.25,7.53c-3.63,5-5.48,11.7-5.48,20,0,8.48,1.7,15.12,5,19.75s8.21,7,14.39,7a20.36,20.36,0,0,0,8.7-1.92,26.25,26.25,0,0,0,6.4-4.19v4.61h9V3.41Zm0,33.17V63.13a29,29,0,0,1-6.09,4.39,15.23,15.23,0,0,1-7.41,2c-7.81,0-11.77-6.35-11.77-18.87,0-6.64,1.19-11.58,3.54-14.68a10.85,10.85,0,0,1,9-4.63C781.33,31.29,785.61,33.07,789.91,36.58Z"/><polygon class="cls-2" points="79.71 6.63 69.81 6.63 57.61 59.56 45.33 7.06 45.23 6.63 34.24 6.63 22.05 59.15 10.04 6.63 0 6.63 15.95 74.76 16.05 75.2 27.42 75.2 39.61 23.13 51.66 74.76 51.76 75.2 63.32 75.2 79.54 7.33 79.71 6.63"/><path class="cls-2" d="M101.57,21.49c-7.34,0-13.06,2.32-17,6.92S78.66,40,78.66,49.19s2,16,5.88,20.57,9.66,6.95,17,6.95,13.09-2.37,17-7,5.8-11.52,5.8-20.49-1.94-16-5.78-20.65S109,21.49,101.57,21.49Zm9.8,42.23c-2.14,3-5.35,4.54-9.8,4.54-4.66,0-7.95-1.5-10-4.58s-3.16-8-3.16-14.49c0-6.76,1.11-11.74,3.28-14.79s5.46-4.52,9.91-4.52,7.58,1.47,9.76,4.5,3.29,8,3.29,14.81C114.62,55.77,113.53,60.65,111.37,63.72Z"/><rect class="cls-2" x="133.74" y="1.51" width="9.43" height="73.69"/><path class="cls-2" d="M183.9,2a24.71,24.71,0,0,0-10-1.95c-5.95,0-10.18,1.54-12.58,4.57s-3.57,7.7-3.57,14V23h-7.44V31.1h7.44V75.2h9.43V31.1H178.4V23H167.16v-4.4c0-4.08.51-6.82,1.52-8.16s2.79-1.94,5.39-1.94a15.1,15.1,0,0,1,3.68.52,15.23,15.23,0,0,1,3.4,1.22l.59.31,2.63-8.35Z"/><path class="cls-2" d="M209.54,22.17A14.86,14.86,0,0,0,200.7,25a55.5,55.5,0,0,0-6.42,5.4V23h-9.43V75.2h9.43V39.54A32.57,32.57,0,0,1,202,33.45a15.44,15.44,0,0,1,6.92-1.67,9.75,9.75,0,0,1,3.64.54l.62.27,2-9.13-.38-.2A11,11,0,0,0,209.54,22.17Z"/><path class="cls-2" d="M253.65,25.61c-3.25-2.74-8.63-4.12-16-4.12a28.16,28.16,0,0,0-12,2.31,15.92,15.92,0,0,0-7.33,6.75L218,31l7.76,4.77.29-.5a11.42,11.42,0,0,1,3.8-3.7c1.75-1.14,4.3-1.72,7.58-1.72,3.7,0,6.63.69,8.7,2.06s3,3.85,3,7.56v2l-12,1.08c-5,.59-8.83,1.58-11.47,3a15.12,15.12,0,0,0-6.16,5.73,17.67,17.67,0,0,0-2.13,9,17.25,17.25,0,0,0,4.08,11.81c2.72,3.08,6.62,4.65,11.59,4.65a18,18,0,0,0,9.11-2.32,46.52,46.52,0,0,0,6.93-4.91V75.2h9.43V39.89C258.58,33.18,256.92,28.38,253.65,25.61Zm-18,42.45c-2.87,0-5-.62-6.43-1.85s-2.08-3.28-2.08-6.15a8,8,0,0,1,3.15-6.87c2.16-1.61,6-2.66,11.35-3.14l7.49-.72V60.9l-3.05,2.44a27.53,27.53,0,0,1-3.38,2.34,23.44,23.44,0,0,1-3.54,1.71A9.59,9.59,0,0,1,235.67,68.06Z"/><path class="cls-2" d="M335.12,29.54a11.83,11.83,0,0,0-4.31-6,13.21,13.21,0,0,0-7.75-2.07,16.2,16.2,0,0,0-9.45,3,51.18,51.18,0,0,0-7.41,6.42A12.13,12.13,0,0,0,302.14,24a13.55,13.55,0,0,0-8.52-2.5,15.9,15.9,0,0,0-9,2.82,41.18,41.18,0,0,0-6.46,5.38V23h-9.43V75.2h9.43V38.76a39.57,39.57,0,0,1,7.35-6,12.36,12.36,0,0,1,6-2.09,6.8,6.8,0,0,1,4,.94,5.41,5.41,0,0,1,1.76,3.25,51.91,51.91,0,0,1,.57,9.62V75.2h9.43V38.77a47.17,47.17,0,0,1,7.92-6.33,11.17,11.17,0,0,1,5.37-1.73,7.62,7.62,0,0,1,4.08.86,4.77,4.77,0,0,1,1.79,3,54.68,54.68,0,0,1,.56,9.91V75.2h9.43V40.52C336.46,35.77,336,32.07,335.12,29.54Z"/><path class="cls-1" d="M666.41,20.52a28.81,28.81,0,1,0,28.81,28.81A28.84,28.84,0,0,0,666.41,20.52ZM647.34,63.36A16.38,16.38,0,0,1,648,59a46.1,46.1,0,0,0,10.26,6.5l-1.73,3.77A39.83,39.83,0,0,1,647.34,63.36Zm8.57,7.2-.61,1.34a29.49,29.49,0,0,1-6.77-4.39,5.61,5.61,0,0,1-.95-2.13A40.83,40.83,0,0,0,655.91,70.56Zm-10-8.56a18,18,0,0,1-4.43-6.6,15.19,15.19,0,0,1-.21-4.47,25.51,25.51,0,0,0,5.42,6.92A19.77,19.77,0,0,0,645.89,62Zm.19,3.13,0,0a27.52,27.52,0,0,1-2.12-3.22,26.49,26.49,0,0,0,2,2A9,9,0,0,0,646.08,65.13Zm-5-19.53c0-.17,0-.34,0-.52a26,26,0,0,1,1.81-6c.06-.13.12-.27.19-.41A11.18,11.18,0,0,0,643.5,41a24.28,24.28,0,0,0-1.85,3.28Q641.37,45,641.11,45.6Zm.6,2.76a19.45,19.45,0,0,1,1.16-3.25,20.59,20.59,0,0,1,1.26-2.35,24,24,0,0,0,5.76,7.74c-.61,1.07-1.16,2.14-1.65,3.2q-.6,1.3-1,2.55A21.19,21.19,0,0,1,641.71,48.36Zm46.95-8.87a4.33,4.33,0,0,1-2.08,2.75,33.55,33.55,0,0,0-3.45-6.48,3.36,3.36,0,0,0,1.13-1.25A24.31,24.31,0,0,1,688.66,39.49Zm-4.29-7.89A10.41,10.41,0,0,1,687,33.86a10.3,10.3,0,0,1,1.48,2.86c0,.13.07.25.1.38a25.3,25.3,0,0,0-3.95-4,4.47,4.47,0,0,0-.21-1.41Zm7.3,15a6,6,0,0,1-2.94,4,32.21,32.21,0,0,0-1.58-6.87,6,6,0,0,0,2.52-2.6A20.06,20.06,0,0,1,691.67,46.6Zm-1.52-7.23v0s0,0,0,.06Zm-33,3.7a61,61,0,0,1,5.07-5.21,31.62,31.62,0,0,0,6.74,4.32l-3,6.52A39.59,39.59,0,0,1,657.12,43.07Zm8.14,7.11-3,6.6a44.23,44.23,0,0,1-10.3-6.6,51.47,51.47,0,0,1,4.15-5.86A41.05,41.05,0,0,0,665.26,50.18Zm5.06-7.38a31.56,31.56,0,0,0,6.27,1.92c.6.11,1.2.21,1.78.28a56.86,56.86,0,0,1-.47,7.23c-.78-.09-1.57-.21-2.36-.37a39.18,39.18,0,0,1-8.15-2.51C668.39,47.13,669.37,44.92,670.32,42.8Zm7.31-6.14a42.86,42.86,0,0,1,.71,6.71l-1.48-.24a29.26,29.26,0,0,1-5.89-1.8l2.55-5.78a17.31,17.31,0,0,0,3.26,1C677.07,36.58,677.36,36.62,677.63,36.66Zm-.18-5.55A29.33,29.33,0,0,1,680.94,35a7.38,7.38,0,0,1-2.23.2A29.48,29.48,0,0,0,677.45,31.11Zm-4.56,2.46a16.26,16.26,0,0,1-2.65-1.65,28.59,28.59,0,0,1,4.35-2.05ZM672.24,35l-2.64,5.74a29.13,29.13,0,0,1-6.18-3.94,47.29,47.29,0,0,1,5.4-4A17.17,17.17,0,0,0,672.24,35Zm-9.92.82a14.15,14.15,0,0,1-3.39-4.65A33.64,33.64,0,0,1,666,29.32a9,9,0,0,0,1.74,2.49A46.7,46.7,0,0,0,662.32,35.8ZM665.66,28a35.05,35.05,0,0,0-7.16,1.78,4.4,4.4,0,0,1,.61-3.54,24.32,24.32,0,0,1,6.71,0A3.44,3.44,0,0,0,665.66,28Zm-4.57,8.85A58.12,58.12,0,0,0,656,42a19,19,0,0,1-4.8-6.72,32.18,32.18,0,0,1,6.25-3.55A15.65,15.65,0,0,0,661.09,36.86ZM657,30.39a32.84,32.84,0,0,0-6.25,3.43,6.1,6.1,0,0,1,1-5.13,20.8,20.8,0,0,1,5.5-2.09A6.05,6.05,0,0,0,657,30.39Zm-2.05,12.88a51.52,51.52,0,0,0-4.19,5.82,21.31,21.31,0,0,1-5.56-7.87,26.28,26.28,0,0,1,4.68-4.89A20.92,20.92,0,0,0,654.92,43.27Zm-3.81,8.32a46,46,0,0,0,10.44,6.66l-2.68,5.85a44.66,44.66,0,0,1-10.41-6.68,29.24,29.24,0,0,1,1.18-3Q650.29,53,651.11,51.59Zm8.62,14.59a47.41,47.41,0,0,0,9.69,3c.84.16,1.67.29,2.48.39a15.88,15.88,0,0,1-3,3.3c-.89-.1-1.81-.23-2.73-.41A40,40,0,0,1,658,69.93C658.46,68.9,659.05,67.64,659.73,66.18Zm9.7,8.13a24.18,24.18,0,0,0,2.53.08,25.11,25.11,0,0,1-3.56.56A10.27,10.27,0,0,0,669.43,74.31ZM671,73a18.6,18.6,0,0,0,2.66-3.26,24.44,24.44,0,0,0,8.28-.65,15.56,15.56,0,0,1-3.42,2.67A16.89,16.89,0,0,1,671,73Zm1.81-4.86q-1.47-.16-3-.45a45.7,45.7,0,0,1-9.43-2.92c.39-.85.81-1.75,1.25-2.72l1.43-3.13a47.48,47.48,0,0,0,9.72,3c.91.18,1.82.32,2.71.43-.37,1-.77,2-1.2,3A30.08,30.08,0,0,1,672.81,68.15Zm.33-7.78a45.91,45.91,0,0,1-9.41-2.91c1-2.17,2-4.39,3-6.62a41.62,41.62,0,0,0,8.51,2.62c.82.16,1.63.28,2.43.38a50.58,50.58,0,0,1-1.64,7C675.07,60.7,674.1,60.55,673.14,60.37ZM679.23,54a19.76,19.76,0,0,0,8.23-1,26.23,26.23,0,0,1-.6,6.68A20.62,20.62,0,0,1,677.65,61,48.26,48.26,0,0,0,679.23,54Zm.22-1.61a53.35,53.35,0,0,0,.41-7.24,14.94,14.94,0,0,0,6-.75,31.2,31.2,0,0,1,1.48,7A18.21,18.21,0,0,1,679.45,52.37Zm5.87-9.52a13.68,13.68,0,0,1-5.5.66,45.82,45.82,0,0,0-.76-6.74,8.26,8.26,0,0,0,2.87-.41A33.1,33.1,0,0,1,685.32,42.85Zm-3.14-8.41a31.09,31.09,0,0,0-2.91-3.34A27.55,27.55,0,0,1,683,33.46,2.09,2.09,0,0,1,682.18,34.44Zm-2.72-4.67a15.84,15.84,0,0,1,2.81.79,5,5,0,0,1,.64,1.26A29.59,29.59,0,0,0,679.46,29.77Zm-1.71-1.49a6,6,0,0,1,1.48-.6,11.92,11.92,0,0,1,1.35,1A19.46,19.46,0,0,0,677.75,28.28Zm-1.52-.55a12,12,0,0,0-.39-1.79,17.69,17.69,0,0,1,1.94.87A11.59,11.59,0,0,0,676.23,27.73Zm1.06,7.3L677,35a16,16,0,0,1-2.85-.85l1.63-3.78A27.05,27.05,0,0,1,677.29,35Zm-4.89-9.94c.3,0,.61.08.93.14s.57.12.85.19a6.06,6.06,0,0,1,.61,1.58A19,19,0,0,0,672.4,25.09Zm.62,4A31.44,31.44,0,0,0,669.17,31a8,8,0,0,1-1.43-1.86A30,30,0,0,1,673,29.11Zm-1.17-1.35a33.18,33.18,0,0,0-4.57.07,2,2,0,0,1,.18-1.31A27.63,27.63,0,0,1,671.85,27.76Zm-3.16-2.3a5.48,5.48,0,0,1,1.2-.35,16.28,16.28,0,0,1,2.43,1.48A28.66,28.66,0,0,0,668.69,25.46ZM666.63,25a26.78,26.78,0,0,0-4.26-.34c-.5,0-1,0-1.5,0a9.23,9.23,0,0,1,3.12-1,11.67,11.67,0,0,1,3.77.51A4,4,0,0,0,666.63,25Zm-17.29,9.8a27.89,27.89,0,0,0-4.67,4.6,7.38,7.38,0,0,1,.27-4.09,26,26,0,0,1,4.37-5.08A8.26,8.26,0,0,0,649.34,34.84Zm8,36.37a41.61,41.61,0,0,0,8.44,2.61c.44.08.88.16,1.31.22a6.12,6.12,0,0,1-2.2.64c-.73-.07-1.47-.18-2.23-.32a30.28,30.28,0,0,1-6-1.83C656.88,72.19,657.1,71.75,657.36,71.21Zm17.19-2.92c.44-.76.85-1.57,1.25-2.43.48-1,.93-2.17,1.34-3.34a23.3,23.3,0,0,0,9.22-1,21.45,21.45,0,0,1-.94,2.43,18.82,18.82,0,0,1-1.72,3A20,20,0,0,1,674.55,68.29Zm12.23-3.93a22.12,22.12,0,0,0,1.28-3.56,10.26,10.26,0,0,0,1.83-1.18,25.69,25.69,0,0,1-3,5.11c-.17.19-.36.38-.56.57C686.48,65,686.63,64.67,686.78,64.36Zm1.72-5.54a27.37,27.37,0,0,0,.38-6.44,8.13,8.13,0,0,0,3.17-2.86c0,.31,0,.63,0,.95a25.64,25.64,0,0,1-.76,5A7,7,0,0,1,688.5,58.82Z"/></g></g></svg>